<?xml version="1.0" encoding="UTF-8" standalone="no"?>
<!DOCTYPE svg PUBLIC "-//W3C//DTD SVG 1.1//EN"
 "http://www.w3.org/Graphics/SVG/1.1/DTD/svg11.dtd">
<!-- Generated by graphviz version 15.0.0 (20260523.1842)
 -->
<!-- Title: G Pages: 1 -->
<svg width="1648pt" height="230pt"
 viewBox="0.00 0.00 1648.00 230.00" xmlns="http://www.w3.org/2000/svg" xmlns:xlink="http://www.w3.org/1999/xlink">
<g id="graph0" class="graph" transform="scale(1 1) rotate(0) translate(4 225.75)">
<title>G</title>
<polygon fill="#fafafa" stroke="none" points="-4,4 -4,-225.75 1644.25,-225.75 1644.25,4 -4,4"/>
<text xml:space="preserve" text-anchor="middle" x="820.12" y="-204.45" font-family="Microsoft YaHei" font-size="14.00">STM32F107VCT6 — 三代架构对比</text>
<g id="clust1" class="cluster">
<title>cluster_gen1</title>
<polygon fill="#e3f2fd" stroke="#1565c0" stroke-width="2" points="8,-15 8,-180 454.25,-180 454.25,-15 8,-15"/>
<text xml:space="preserve" text-anchor="middle" x="231.12" y="-162.7" font-family="Microsoft YaHei" font-size="14.00">v1 裸机前后台（任务1）</text>
</g>
<g id="clust2" class="cluster">
<title>cluster_gen2</title>
<polygon fill="#c8e6c9" stroke="#2e7d32" stroke-width="2" points="557.25,-8 557.25,-187 999.25,-187 999.25,-8 557.25,-8"/>
<text xml:space="preserve" text-anchor="middle" x="778.25" y="-169.7" font-family="Microsoft YaHei" font-size="14.00">v2 FreeRTOS 4任务（任务2）</text>
</g>
<g id="clust3" class="cluster">
<title>cluster_gen3</title>
<polygon fill="#ffcdd2" stroke="#c62828" stroke-width="2" points="1083.5,-15 1083.5,-180 1632.25,-180 1632.25,-15 1083.5,-15"/>
<text xml:space="preserve" text-anchor="middle" x="1357.88" y="-162.7" font-family="Microsoft YaHei" font-size="14.00">v3 FreeRTOS 7任务（任务3）</text>
</g>
<!-- g1_init -->
<g id="node1" class="node">
<title>g1_init</title>
<path fill="#bbdefb" stroke="black" d="M104.75,-70.12C104.75,-70.12 36.25,-70.12 36.25,-70.12 30.25,-70.12 24.25,-64.12 24.25,-58.12 24.25,-58.12 24.25,-35.88 24.25,-35.88 24.25,-29.88 30.25,-23.88 36.25,-23.88 36.25,-23.88 104.75,-23.88 104.75,-23.88 110.75,-23.88 116.75,-29.88 116.75,-35.88 116.75,-35.88 116.75,-58.12 116.75,-58.12 116.75,-64.12 110.75,-70.12 104.75,-70.12"/>
<text xml:space="preserve" text-anchor="middle" x="70.5" y="-57.58" font-family="Microsoft YaHei" font-size="9.00">bsp_init()</text>
<text xml:space="preserve" text-anchor="middle" x="70.5" y="-44.83" font-family="Microsoft YaHei" font-size="9.00">GPIO/TIM/USART</text>
<text xml:space="preserve" text-anchor="middle" x="70.5" y="-32.08" font-family="Microsoft YaHei" font-size="9.00">ADC/I2C/OLED</text>
</g>
<!-- g1_loop -->
<g id="node2" class="node">
<title>g1_loop</title>
<path fill="#90caf9" stroke="black" d="M301.25,-145.38C301.25,-145.38 204.25,-145.38 204.25,-145.38 198.25,-145.38 192.25,-139.38 192.25,-133.38 192.25,-133.38 192.25,-34.62 192.25,-34.62 192.25,-28.62 198.25,-22.62 204.25,-22.62 204.25,-22.62 301.25,-22.62 301.25,-22.62 307.25,-22.62 313.25,-28.62 313.25,-34.62 313.25,-34.62 313.25,-133.38 313.25,-133.38 313.25,-139.38 307.25,-145.38 301.25,-145.38"/>
<text xml:space="preserve" text-anchor="middle" x="252.75" y="-132.82" font-family="Microsoft YaHei" font-size="9.00">while(1) 超级循环</text>
<text xml:space="preserve" text-anchor="middle" x="252.75" y="-120.08" font-family="Microsoft YaHei" font-size="9.00">━━━━━━━━━━━━━━</text>
<text xml:space="preserve" text-anchor="middle" x="252.75" y="-107.33" font-family="Microsoft YaHei" font-size="9.00">1. 1s采集温度/距离</text>
<text xml:space="preserve" text-anchor="middle" x="252.75" y="-94.58" font-family="Microsoft YaHei" font-size="9.00">2. 限位&#45;&gt;停&#45;&gt;换向&#45;&gt;回退</text>
<text xml:space="preserve" text-anchor="middle" x="252.75" y="-81.83" font-family="Microsoft YaHei" font-size="9.00">3. 目标到达&#45;&gt;重置&#45;&gt;重启</text>
<text xml:space="preserve" text-anchor="middle" x="252.75" y="-69.08" font-family="Microsoft YaHei" font-size="9.00">4. 温度&gt;500&#45;&gt;慢闪告警</text>
<text xml:space="preserve" text-anchor="middle" x="252.75" y="-56.33" font-family="Microsoft YaHei" font-size="9.00">5. 距离&lt;40&#45;&gt;停机+快闪</text>
<text xml:space="preserve" text-anchor="middle" x="252.75" y="-43.58" font-family="Microsoft YaHei" font-size="9.00">6. LED模式切换</text>
<text xml:space="preserve" text-anchor="middle" x="252.75" y="-30.82" font-family="Microsoft YaHei" font-size="9.00">7. 电机状态保持</text>
</g>
<!-- g1_init&#45;&gt;g1_loop -->
<g id="edge1" class="edge">
<title>g1_init&#45;&gt;g1_loop</title>
<path fill="none" stroke="black" stroke-width="2" d="M117.23,-56.2C133.92,-59.58 152.94,-63.44 170.25,-67 173.79,-67.73 177.41,-68.48 181.08,-69.23"/>
<polygon fill="black" stroke="black" stroke-width="2" points="178.65,-72.3 189.15,-70.9 180.07,-65.45 178.65,-72.3"/>
</g>
<!-- g1_exec -->
<g id="node4" class="node">
<title>g1_exec</title>
<path fill="#ffcdd2" stroke="black" d="M434.25,-126.25C434.25,-126.25 370.25,-126.25 370.25,-126.25 364.25,-126.25 358.25,-120.25 358.25,-114.25 358.25,-114.25 358.25,-53.75 358.25,-53.75 358.25,-47.75 364.25,-41.75 370.25,-41.75 370.25,-41.75 434.25,-41.75 434.25,-41.75 440.25,-41.75 446.25,-47.75 446.25,-53.75 446.25,-53.75 446.25,-114.25 446.25,-114.25 446.25,-120.25 440.25,-126.25 434.25,-126.25"/>
<text xml:space="preserve" text-anchor="middle" x="402.25" y="-113.7" font-family="Microsoft YaHei" font-size="9.00">执行特征</text>
<text xml:space="preserve" text-anchor="middle" x="402.25" y="-100.95" font-family="Microsoft YaHei" font-size="9.00">━━━━━━━━</text>
<text xml:space="preserve" text-anchor="middle" x="402.25" y="-88.2" font-family="Microsoft YaHei" font-size="9.00">X 顺序执行</text>
<text xml:space="preserve" text-anchor="middle" x="402.25" y="-75.45" font-family="Microsoft YaHei" font-size="9.00">X 无优先级</text>
<text xml:space="preserve" text-anchor="middle" x="402.25" y="-62.7" font-family="Microsoft YaHei" font-size="9.00">X 100% CPU忙等</text>
<text xml:space="preserve" text-anchor="middle" x="402.25" y="-49.95" font-family="Microsoft YaHei" font-size="9.00">X 实时性差</text>
</g>
<!-- g1_loop&#45;&gt;g1_exec -->
<g id="edge3" class="edge">
<title>g1_loop&#45;&gt;g1_exec</title>
<path fill="none" stroke="black" stroke-width="2" d="M313.74,-84C324.64,-84 335.95,-84 346.68,-84"/>
<polygon fill="black" stroke="black" stroke-width="2" points="345.01,-87.5 355.01,-84 345.01,-80.5 345.01,-87.5"/>
</g>
<!-- g1_isr -->
<g id="node3" class="node">
<title>g1_isr</title>
<path fill="#e3f2fd" stroke="black" stroke-dasharray="5,2" d="M113,-145.12C113,-145.12 28,-145.12 28,-145.12 22,-145.12 16,-139.12 16,-133.12 16,-133.12 16,-110.88 16,-110.88 16,-104.88 22,-98.88 28,-98.88 28,-98.88 113,-98.88 113,-98.88 119,-98.88 125,-104.88 125,-110.88 125,-110.88 125,-133.12 125,-133.12 125,-139.12 119,-145.12 113,-145.12"/>
<text xml:space="preserve" text-anchor="middle" x="70.5" y="-132.57" font-family="Microsoft YaHei" font-size="9.00">TIM1_UP_IRQHandler</text>
<text xml:space="preserve" text-anchor="middle" x="70.5" y="-119.83" font-family="Microsoft YaHei" font-size="9.00">1ms 系统时基</text>
<text xml:space="preserve" text-anchor="middle" x="70.5" y="-107.08" font-family="Microsoft YaHei" font-size="9.00">sysTick_ms 0~5000</text>
</g>
<!-- g1_isr&#45;&gt;g1_loop -->
<g id="edge2" class="edge">
<title>g1_isr&#45;&gt;g1_loop</title>
<path fill="none" stroke="black" stroke-dasharray="1,5" d="M125.09,-110.7C142.62,-107.01 162.37,-102.84 180.96,-98.92"/>
<polygon fill="black" stroke="black" points="181.51,-102.38 190.57,-96.9 180.07,-95.54 181.51,-102.38"/>
<text xml:space="preserve" text-anchor="middle" x="158.62" y="-108.48" font-family="Times New Roman,serif" font-size="14.00">1ms</text>
</g>
<!-- g2_tasks -->
<g id="node5" class="node">
<title>g2_tasks</title>
<path fill="#a5d6a7" stroke="black" d="M702.75,-151.75C702.75,-151.75 577.25,-151.75 577.25,-151.75 571.25,-151.75 565.25,-145.75 565.25,-139.75 565.25,-139.75 565.25,-28.25 565.25,-28.25 565.25,-22.25 571.25,-16.25 577.25,-16.25 577.25,-16.25 702.75,-16.25 702.75,-16.25 708.75,-16.25 714.75,-22.25 714.75,-28.25 714.75,-28.25 714.75,-139.75 714.75,-139.75 714.75,-145.75 708.75,-151.75 702.75,-151.75"/>
<text xml:space="preserve" text-anchor="middle" x="640" y="-139.2" font-family="Microsoft YaHei" font-size="9.00">4个独立任务</text>
<text xml:space="preserve" text-anchor="middle" x="640" y="-126.45" font-family="Microsoft YaHei" font-size="9.00">━━━━━━━━━━━━━━</text>
<text xml:space="preserve" text-anchor="middle" x="640" y="-113.7" font-family="Microsoft YaHei" font-size="9.00">1. vTaskLimitSwitch (prio4)</text>
<text xml:space="preserve" text-anchor="middle" x="640" y="-100.95" font-family="Microsoft YaHei" font-size="9.00"> &#160;&#160;&#160;信号量触发 50ms去抖</text>
<text xml:space="preserve" text-anchor="middle" x="640" y="-88.2" font-family="Microsoft YaHei" font-size="9.00">2. vTaskControl (prio3)</text>
<text xml:space="preserve" text-anchor="middle" x="640" y="-75.45" font-family="Microsoft YaHei" font-size="9.00"> &#160;&#160;&#160;10ms轮询 STOP/START</text>
<text xml:space="preserve" text-anchor="middle" x="640" y="-62.7" font-family="Microsoft YaHei" font-size="9.00">3. vTaskCollect (prio2)</text>
<text xml:space="preserve" text-anchor="middle" x="640" y="-49.95" font-family="Microsoft YaHei" font-size="9.00"> &#160;&#160;&#160;100ms 温度+距离</text>
<text xml:space="preserve" text-anchor="middle" x="640" y="-37.2" font-family="Microsoft YaHei" font-size="9.00">4. vTaskCommunication (prio1)</text>
<text xml:space="preserve" text-anchor="middle" x="640" y="-24.45" font-family="Microsoft YaHei" font-size="9.00"> &#160;&#160;&#160;80ms printf+OLED</text>
</g>
<!-- g1_exec&#45;&gt;g2_tasks -->
<g id="edge9" class="edge">
<title>g1_exec&#45;&gt;g2_tasks</title>
<path fill="none" stroke="#1565c0" stroke-width="2" d="M446.49,-84C476.49,-84 517.44,-84 553.86,-84"/>
<polygon fill="#1565c0" stroke="#1565c0" stroke-width="2" points="551.97,-87.5 561.97,-84 551.97,-80.5 551.97,-87.5"/>
<text xml:space="preserve" text-anchor="middle" x="505.75" y="-88.55" font-family="Microsoft YaHei" font-size="11.00">引入 FreeRTOS</text>
</g>
<!-- g2_ipc -->
<g id="node6" class="node">
<title>g2_ipc</title>
<path fill="#81c784" stroke="black" d="M846.25,-119.88C846.25,-119.88 771.75,-119.88 771.75,-119.88 765.75,-119.88 759.75,-113.88 759.75,-107.88 759.75,-107.88 759.75,-60.12 759.75,-60.12 759.75,-54.12 765.75,-48.12 771.75,-48.12 771.75,-48.12 846.25,-48.12 846.25,-48.12 852.25,-48.12 858.25,-54.12 858.25,-60.12 858.25,-60.12 858.25,-107.88 858.25,-107.88 858.25,-113.88 852.25,-119.88 846.25,-119.88"/>
<text xml:space="preserve" text-anchor="middle" x="809" y="-107.33" font-family="Microsoft YaHei" font-size="9.00">IPC 机制</text>
<text xml:space="preserve" text-anchor="middle" x="809" y="-94.58" font-family="Microsoft YaHei" font-size="9.00">━━━━━━━━</text>
<text xml:space="preserve" text-anchor="middle" x="809" y="-81.83" font-family="Microsoft YaHei" font-size="9.00">LimitSemaphore x1</text>
<text xml:space="preserve" text-anchor="middle" x="809" y="-69.08" font-family="Microsoft YaHei" font-size="9.00">TempQueue x1</text>
<text xml:space="preserve" text-anchor="middle" x="809" y="-56.33" font-family="Microsoft YaHei" font-size="9.00">DisQueue x1</text>
</g>
<!-- g2_tasks&#45;&gt;g2_ipc -->
<g id="edge4" class="edge">
<title>g2_tasks&#45;&gt;g2_ipc</title>
<path fill="none" stroke="black" stroke-width="2" d="M715.22,-84C726.22,-84 737.45,-84 748.11,-84"/>
<polygon fill="black" stroke="black" stroke-width="2" points="746.39,-87.5 756.39,-84 746.39,-80.5 746.39,-87.5"/>
</g>
<!-- g2_exec -->
<g id="node7" class="node">
<title>g2_exec</title>
<path fill="#c8e6c9" stroke="black" d="M979.25,-126.25C979.25,-126.25 915.25,-126.25 915.25,-126.25 909.25,-126.25 903.25,-120.25 903.25,-114.25 903.25,-114.25 903.25,-53.75 903.25,-53.75 903.25,-47.75 909.25,-41.75 915.25,-41.75 915.25,-41.75 979.25,-41.75 979.25,-41.75 985.25,-41.75 991.25,-47.75 991.25,-53.75 991.25,-53.75 991.25,-114.25 991.25,-114.25 991.25,-120.25 985.25,-126.25 979.25,-126.25"/>
<text xml:space="preserve" text-anchor="middle" x="947.25" y="-113.7" font-family="Microsoft YaHei" font-size="9.00">执行特征</text>
<text xml:space="preserve" text-anchor="middle" x="947.25" y="-100.95" font-family="Microsoft YaHei" font-size="9.00">━━━━━━━━</text>
<text xml:space="preserve" text-anchor="middle" x="947.25" y="-88.2" font-family="Microsoft YaHei" font-size="9.00">V 抢占式调度</text>
<text xml:space="preserve" text-anchor="middle" x="947.25" y="-75.45" font-family="Microsoft YaHei" font-size="9.00">V 优先级保证</text>
<text xml:space="preserve" text-anchor="middle" x="947.25" y="-62.7" font-family="Microsoft YaHei" font-size="9.00">V 阻塞时释放CPU</text>
<text xml:space="preserve" text-anchor="middle" x="947.25" y="-49.95" font-family="Microsoft YaHei" font-size="9.00">V 实时性好</text>
</g>
<!-- g2_ipc&#45;&gt;g2_exec -->
<g id="edge5" class="edge">
<title>g2_ipc&#45;&gt;g2_exec</title>
<path fill="none" stroke="black" stroke-width="2" d="M858.42,-84C869.21,-84 880.71,-84 891.73,-84"/>
<polygon fill="black" stroke="black" stroke-width="2" points="889.95,-87.5 899.95,-84 889.95,-80.5 889.95,-87.5"/>
</g>
<!-- g3_tasks -->
<g id="node8" class="node">
<title>g3_tasks</title>
<path fill="#ef9a9a" stroke="black" d="M1226.75,-145.38C1226.75,-145.38 1103.5,-145.38 1103.5,-145.38 1097.5,-145.38 1091.5,-139.38 1091.5,-133.38 1091.5,-133.38 1091.5,-34.62 1091.5,-34.62 1091.5,-28.62 1097.5,-22.62 1103.5,-22.62 1103.5,-22.62 1226.75,-22.62 1226.75,-22.62 1232.75,-22.62 1238.75,-28.62 1238.75,-34.62 1238.75,-34.62 1238.75,-133.38 1238.75,-133.38 1238.75,-139.38 1232.75,-145.38 1226.75,-145.38"/>
<text xml:space="preserve" text-anchor="middle" x="1165.12" y="-132.82" font-family="Microsoft YaHei" font-size="9.00">7个独立任务</text>
<text xml:space="preserve" text-anchor="middle" x="1165.12" y="-120.08" font-family="Microsoft YaHei" font-size="9.00">━━━━━━━━━━━━━━</text>
<text xml:space="preserve" text-anchor="middle" x="1165.12" y="-107.33" font-family="Microsoft YaHei" font-size="9.00">1. vTaskLimitSwitch (prio4)</text>
<text xml:space="preserve" text-anchor="middle" x="1165.12" y="-94.58" font-family="Microsoft YaHei" font-size="9.00">2. vTaskAbnormalSit. (prio4)</text>
<text xml:space="preserve" text-anchor="middle" x="1165.12" y="-81.83" font-family="Microsoft YaHei" font-size="9.00">3. vTaskControl (prio3)</text>
<text xml:space="preserve" text-anchor="middle" x="1165.12" y="-69.08" font-family="Microsoft YaHei" font-size="9.00">4. vTaskCollect (prio2)</text>
<text xml:space="preserve" text-anchor="middle" x="1165.12" y="-56.33" font-family="Microsoft YaHei" font-size="9.00">5. vTaskMotorReached (prio2)</text>
<text xml:space="preserve" text-anchor="middle" x="1165.12" y="-43.58" font-family="Microsoft YaHei" font-size="9.00">6. vTaskCommu. (prio1)</text>
<text xml:space="preserve" text-anchor="middle" x="1165.12" y="-30.82" font-family="Microsoft YaHei" font-size="9.00">7. vTaskLedMode (prio1)</text>
</g>
<!-- g2_exec&#45;&gt;g3_tasks -->
<g id="edge10" class="edge">
<title>g2_exec&#45;&gt;g3_tasks</title>
<path fill="none" stroke="#c62828" stroke-width="2" d="M991.68,-84C1016.9,-84 1049.54,-84 1079.62,-84"/>
<polygon fill="#c62828" stroke="#c62828" stroke-width="2" points="1077.98,-87.5 1087.98,-84 1077.98,-80.5 1077.98,-87.5"/>
<text xml:space="preserve" text-anchor="middle" x="1041.38" y="-103.55" font-family="Microsoft YaHei" font-size="11.00">扩展任务</text>
<text xml:space="preserve" text-anchor="middle" x="1041.38" y="-88.55" font-family="Microsoft YaHei" font-size="11.00">全事件驱动</text>
</g>
<!-- g3_ipc -->
<g id="node9" class="node">
<title>g3_ipc</title>
<path fill="#ef5350" stroke="black" d="M1338,-119.88C1338,-119.88 1295.75,-119.88 1295.75,-119.88 1289.75,-119.88 1283.75,-113.88 1283.75,-107.88 1283.75,-107.88 1283.75,-60.12 1283.75,-60.12 1283.75,-54.12 1289.75,-48.12 1295.75,-48.12 1295.75,-48.12 1338,-48.12 1338,-48.12 1344,-48.12 1350,-54.12 1350,-60.12 1350,-60.12 1350,-107.88 1350,-107.88 1350,-113.88 1344,-119.88 1338,-119.88"/>
<text xml:space="preserve" text-anchor="middle" x="1316.88" y="-107.33" font-family="Microsoft YaHei" font-size="9.00">IPC 机制</text>
<text xml:space="preserve" text-anchor="middle" x="1316.88" y="-94.58" font-family="Microsoft YaHei" font-size="9.00">━━━━━━━━</text>
<text xml:space="preserve" text-anchor="middle" x="1316.88" y="-81.83" font-family="Microsoft YaHei" font-size="9.00">4个信号量</text>
<text xml:space="preserve" text-anchor="middle" x="1316.88" y="-69.08" font-family="Microsoft YaHei" font-size="9.00">4个消息队列</text>
<text xml:space="preserve" text-anchor="middle" x="1316.88" y="-56.33" font-family="Microsoft YaHei" font-size="9.00">全事件驱动</text>
</g>
<!-- g3_tasks&#45;&gt;g3_ipc -->
<g id="edge6" class="edge">
<title>g3_tasks&#45;&gt;g3_ipc</title>
<path fill="none" stroke="black" stroke-width="2" d="M1239.25,-84C1250.57,-84 1261.96,-84 1272.35,-84"/>
<polygon fill="black" stroke="black" stroke-width="2" points="1270.59,-87.5 1280.59,-84 1270.59,-80.5 1270.59,-87.5"/>
</g>
<!-- g3_features -->
<g id="node10" class="node">
<title>g3_features</title>
<path fill="#e57373" stroke="black" d="M1497.25,-139C1497.25,-139 1407,-139 1407,-139 1401,-139 1395,-133 1395,-127 1395,-127 1395,-41 1395,-41 1395,-35 1401,-29 1407,-29 1407,-29 1497.25,-29 1497.25,-29 1503.25,-29 1509.25,-35 1509.25,-41 1509.25,-41 1509.25,-127 1509.25,-127 1509.25,-133 1503.25,-139 1497.25,-139"/>
<text xml:space="preserve" text-anchor="middle" x="1452.12" y="-126.45" font-family="Microsoft YaHei" font-size="9.00">新增特性</text>
<text xml:space="preserve" text-anchor="middle" x="1452.12" y="-113.7" font-family="Microsoft YaHei" font-size="9.00">━━━━━━━━</text>
<text xml:space="preserve" text-anchor="middle" x="1452.12" y="-100.95" font-family="Microsoft YaHei" font-size="9.00">V 障碍物自动检测恢复</text>
<text xml:space="preserve" text-anchor="middle" x="1452.12" y="-88.2" font-family="Microsoft YaHei" font-size="9.00">V 中点定位(3050脉冲)</text>
<text xml:space="preserve" text-anchor="middle" x="1452.12" y="-75.45" font-family="Microsoft YaHei" font-size="9.00">V LED 4模式独立控制</text>
<text xml:space="preserve" text-anchor="middle" x="1452.12" y="-62.7" font-family="Microsoft YaHei" font-size="9.00">V 斜坡加减速(1Hz/脉冲)</text>
<text xml:space="preserve" text-anchor="middle" x="1452.12" y="-49.95" font-family="Microsoft YaHei" font-size="9.00">V motor_t 结构体管理</text>
<text xml:space="preserve" text-anchor="middle" x="1452.12" y="-37.2" font-family="Microsoft YaHei" font-size="9.00">V 零轮询</text>
</g>
<!-- g3_ipc&#45;&gt;g3_features -->
<g id="edge7" class="edge">
<title>g3_ipc&#45;&gt;g3_features</title>
<path fill="none" stroke="black" stroke-width="2" d="M1350.47,-84C1360.47,-84 1371.86,-84 1383.3,-84"/>
<polygon fill="black" stroke="black" stroke-width="2" points="1381.68,-87.5 1391.68,-84 1381.68,-80.5 1381.68,-87.5"/>
</g>
<!-- g3_exec -->
<g id="node11" class="node">
<title>g3_exec</title>
<path fill="#ef9a9a" stroke="black" d="M1612.25,-126.25C1612.25,-126.25 1566.25,-126.25 1566.25,-126.25 1560.25,-126.25 1554.25,-120.25 1554.25,-114.25 1554.25,-114.25 1554.25,-53.75 1554.25,-53.75 1554.25,-47.75 1560.25,-41.75 1566.25,-41.75 1566.25,-41.75 1612.25,-41.75 1612.25,-41.75 1618.25,-41.75 1624.25,-47.75 1624.25,-53.75 1624.25,-53.75 1624.25,-114.25 1624.25,-114.25 1624.25,-120.25 1618.25,-126.25 1612.25,-126.25"/>
<text xml:space="preserve" text-anchor="middle" x="1589.25" y="-113.7" font-family="Microsoft YaHei" font-size="9.00">执行特征</text>
<text xml:space="preserve" text-anchor="middle" x="1589.25" y="-100.95" font-family="Microsoft YaHei" font-size="9.00">━━━━━━━━</text>
<text xml:space="preserve" text-anchor="middle" x="1589.25" y="-88.2" font-family="Microsoft YaHei" font-size="9.00">V 抢占式调度</text>
<text xml:space="preserve" text-anchor="middle" x="1589.25" y="-75.45" font-family="Microsoft YaHei" font-size="9.00">V 安全优先</text>
<text xml:space="preserve" text-anchor="middle" x="1589.25" y="-62.7" font-family="Microsoft YaHei" font-size="9.00">V 扩展性强</text>
<text xml:space="preserve" text-anchor="middle" x="1589.25" y="-49.95" font-family="Microsoft YaHei" font-size="9.00">V 实时性最佳</text>
</g>
<!-- g3_features&#45;&gt;g3_exec -->
<g id="edge8" class="edge">
<title>g3_features&#45;&gt;g3_exec</title>
<path fill="none" stroke="black" stroke-width="2" d="M1509.65,-84C1520.58,-84 1531.9,-84 1542.44,-84"/>
<polygon fill="black" stroke="black" stroke-width="2" points="1540.91,-87.5 1550.91,-84 1540.91,-80.5 1540.91,-87.5"/>
</g>
</g>
</svg>
