<?xml version="1.0" encoding="UTF-8" standalone="no"?>
<!DOCTYPE svg PUBLIC "-//W3C//DTD SVG 1.1//EN"
 "http://www.w3.org/Graphics/SVG/1.1/DTD/svg11.dtd">
<!-- Generated by graphviz version 15.0.0 (20260523.1842)
 -->
<!-- Title: G Pages: 1 -->
<svg width="2177pt" height="306pt"
 viewBox="0.00 0.00 2177.00 306.00" xmlns="http://www.w3.org/2000/svg" xmlns:xlink="http://www.w3.org/1999/xlink">
<g id="graph0" class="graph" transform="scale(1 1) rotate(0) translate(4 301.75)">
<title>G</title>
<polygon fill="#fafafa" stroke="none" points="-4,4 -4,-301.75 2173.25,-301.75 2173.25,4 -4,4"/>
<text xml:space="preserve" text-anchor="middle" x="1084.62" y="-280.45" font-family="Microsoft YaHei" font-size="14.00">STM32F107VCT6 — 三代架构对比</text>
<g id="clust1" class="cluster">
<title>cluster_gen1</title>
<polygon fill="#e3f2fd" stroke="#1565c0" stroke-width="2" points="8,-38 8,-241 542.75,-241 542.75,-38 8,-38"/>
<text xml:space="preserve" text-anchor="middle" x="275.38" y="-223.7" font-family="Microsoft YaHei" font-size="14.00">第一代: 裸机前后台（任务1~2）</text>
</g>
<g id="clust2" class="cluster">
<title>cluster_gen2</title>
<polygon fill="#c8e6c9" stroke="#2e7d32" stroke-width="2" points="639.75,-8 639.75,-263 1337,-263 1337,-8 639.75,-8"/>
<text xml:space="preserve" text-anchor="middle" x="988.38" y="-245.7" font-family="Microsoft YaHei" font-size="14.00">第二代: FreeRTOS 多任务（任务3~6）</text>
</g>
<g id="clust3" class="cluster">
<title>cluster_gen3</title>
<polygon fill="#fce4ec" stroke="#880e4f" stroke-width="2" points="1452.75,-35 1452.75,-236 2161.25,-236 2161.25,-35 1452.75,-35"/>
<text xml:space="preserve" text-anchor="middle" x="1807" y="-218.7" font-family="Microsoft YaHei" font-size="14.00">第三代: 梯形加减速（任务7）</text>
</g>
<!-- g1_init -->
<g id="node1" class="node">
<title>g1_init</title>
<path fill="#bbdefb" stroke="black" d="M114.88,-105.5C114.88,-105.5 46.38,-105.5 46.38,-105.5 40.38,-105.5 34.38,-99.5 34.38,-93.5 34.38,-93.5 34.38,-58.5 34.38,-58.5 34.38,-52.5 40.38,-46.5 46.38,-46.5 46.38,-46.5 114.88,-46.5 114.88,-46.5 120.88,-46.5 126.88,-52.5 126.88,-58.5 126.88,-58.5 126.88,-93.5 126.88,-93.5 126.88,-99.5 120.88,-105.5 114.88,-105.5"/>
<text xml:space="preserve" text-anchor="middle" x="80.62" y="-92.95" font-family="Microsoft YaHei" font-size="9.00">bsp_init()</text>
<text xml:space="preserve" text-anchor="middle" x="80.62" y="-80.2" font-family="Microsoft YaHei" font-size="9.00">GPIO/TIM/USART</text>
<text xml:space="preserve" text-anchor="middle" x="80.62" y="-67.45" font-family="Microsoft YaHei" font-size="9.00">ADC/I2C/OLED</text>
<text xml:space="preserve" text-anchor="middle" x="80.62" y="-54.7" font-family="Microsoft YaHei" font-size="9.00">motor_start()</text>
</g>
<!-- g1_loop -->
<g id="node2" class="node">
<title>g1_loop</title>
<path fill="#90caf9" stroke="black" d="M362.75,-183.38C362.75,-183.38 270.25,-183.38 270.25,-183.38 264.25,-183.38 258.25,-177.38 258.25,-171.38 258.25,-171.38 258.25,-72.62 258.25,-72.62 258.25,-66.62 264.25,-60.62 270.25,-60.62 270.25,-60.62 362.75,-60.62 362.75,-60.62 368.75,-60.62 374.75,-66.62 374.75,-72.62 374.75,-72.62 374.75,-171.38 374.75,-171.38 374.75,-177.38 368.75,-183.38 362.75,-183.38"/>
<text xml:space="preserve" text-anchor="middle" x="316.5" y="-170.82" font-family="Microsoft YaHei" font-size="9.00">while(1) 超级循环</text>
<text xml:space="preserve" text-anchor="middle" x="316.5" y="-158.07" font-family="Microsoft YaHei" font-size="9.00">━━━━━━━━━━━━━━</text>
<text xml:space="preserve" text-anchor="middle" x="316.5" y="-145.32" font-family="Microsoft YaHei" font-size="9.00">1. 1s采集温度/距离</text>
<text xml:space="preserve" text-anchor="middle" x="316.5" y="-132.57" font-family="Microsoft YaHei" font-size="9.00">2. 限位→停→换向→回退</text>
<text xml:space="preserve" text-anchor="middle" x="316.5" y="-119.83" font-family="Microsoft YaHei" font-size="9.00">3. 目标到达→重置→重启</text>
<text xml:space="preserve" text-anchor="middle" x="316.5" y="-107.08" font-family="Microsoft YaHei" font-size="9.00">4. 温度&gt;500→慢闪告警</text>
<text xml:space="preserve" text-anchor="middle" x="316.5" y="-94.33" font-family="Microsoft YaHei" font-size="9.00">5. 距离&lt;40→停机+快闪</text>
<text xml:space="preserve" text-anchor="middle" x="316.5" y="-81.58" font-family="Microsoft YaHei" font-size="9.00">6. LED模式切换</text>
<text xml:space="preserve" text-anchor="middle" x="316.5" y="-68.83" font-family="Microsoft YaHei" font-size="9.00">7. 电机状态保持</text>
</g>
<!-- g1_init&#45;&gt;g1_loop -->
<g id="edge1" class="edge">
<title>g1_init&#45;&gt;g1_loop</title>
<path fill="none" stroke="black" stroke-width="2" d="M127.21,-81.65C158.14,-85.83 199.87,-92.15 236.25,-100 239.81,-100.77 243.45,-101.6 247.11,-102.48"/>
<polygon fill="black" stroke="black" stroke-width="2" points="244.64,-105.47 255.19,-104.49 246.33,-98.68 244.64,-105.47"/>
</g>
<!-- g1_exec -->
<g id="node4" class="node">
<title>g1_exec</title>
<path fill="#ffcdd2" stroke="black" d="M522.75,-171.48C522.75,-171.48 431.75,-171.48 431.75,-171.48 425.75,-171.48 419.75,-165.48 419.75,-159.48 419.75,-159.48 419.75,-84.52 419.75,-84.52 419.75,-78.52 425.75,-72.52 431.75,-72.52 431.75,-72.52 522.75,-72.52 522.75,-72.52 528.75,-72.52 534.75,-78.52 534.75,-84.52 534.75,-84.52 534.75,-159.48 534.75,-159.48 534.75,-165.48 528.75,-171.48 522.75,-171.48"/>
<text xml:space="preserve" text-anchor="middle" x="477.25" y="-158.93" font-family="Microsoft YaHei" font-size="9.00">执行特征</text>
<text xml:space="preserve" text-anchor="middle" x="477.25" y="-146.18" font-family="Microsoft YaHei" font-size="9.00">━━━━━━━━</text>
<text xml:space="preserve" text-anchor="middle" x="477.25" y="-133.43" font-family="Microsoft YaHei" font-size="9.00">✗ 顺序执行,无优先级</text>
<text xml:space="preserve" text-anchor="middle" x="477.25" y="-120.11" font-family="Microsoft YaHei" font-size="9.00">✗ ISR内阻塞(delay_ms)</text>
<text xml:space="preserve" text-anchor="middle" x="477.25" y="-107.36" font-family="Microsoft YaHei" font-size="9.00">✗ 100% CPU忙等</text>
<text xml:space="preserve" text-anchor="middle" x="477.25" y="-94.61" font-family="Microsoft YaHei" font-size="9.00">✗ 实时性差</text>
<text xml:space="preserve" text-anchor="middle" x="477.25" y="-81.29" font-family="Microsoft YaHei" font-size="9.00">✗ 扩展需改主循环</text>
</g>
<!-- g1_loop&#45;&gt;g1_exec -->
<g id="edge3" class="edge">
<title>g1_loop&#45;&gt;g1_exec</title>
<path fill="none" stroke="black" stroke-width="2" d="M374.81,-122C385.56,-122 396.89,-122 407.93,-122"/>
<polygon fill="black" stroke="black" stroke-width="2" points="406.26,-125.5 416.26,-122 406.26,-118.5 406.26,-125.5"/>
</g>
<!-- g1_isr -->
<g id="node3" class="node">
<title>g1_isr</title>
<path fill="#e3f2fd" stroke="black" stroke-dasharray="5,2" d="M133.25,-205.88C133.25,-205.88 28,-205.88 28,-205.88 22,-205.88 16,-199.88 16,-193.88 16,-193.88 16,-146.12 16,-146.12 16,-140.12 22,-134.12 28,-134.12 28,-134.12 133.25,-134.12 133.25,-134.12 139.25,-134.12 145.25,-140.12 145.25,-146.12 145.25,-146.12 145.25,-193.88 145.25,-193.88 145.25,-199.88 139.25,-205.88 133.25,-205.88"/>
<text xml:space="preserve" text-anchor="middle" x="80.62" y="-193.32" font-family="Microsoft YaHei" font-size="9.00">ISR (阻塞式)</text>
<text xml:space="preserve" text-anchor="middle" x="80.62" y="-180.57" font-family="Microsoft YaHei" font-size="9.00">━━━━━━━━━━━━━━</text>
<text xml:space="preserve" text-anchor="middle" x="80.62" y="-167.82" font-family="Microsoft YaHei" font-size="9.00">EXTI: delay_ms(50)在ISR内</text>
<text xml:space="preserve" text-anchor="middle" x="80.62" y="-155.07" font-family="Microsoft YaHei" font-size="9.00">TIM5: 脉冲计数+斜坡</text>
<text xml:space="preserve" text-anchor="middle" x="80.62" y="-142.32" font-family="Microsoft YaHei" font-size="9.00">TIM1: 1ms时基</text>
</g>
<!-- g1_isr&#45;&gt;g1_loop -->
<g id="edge2" class="edge">
<title>g1_isr&#45;&gt;g1_loop</title>
<path fill="none" stroke="black" stroke-dasharray="1,5" d="M145.53,-156.88C176.99,-150.43 214.94,-142.64 246.99,-136.06"/>
<polygon fill="black" stroke="black" points="247.49,-139.53 256.58,-134.09 246.08,-132.67 247.49,-139.53"/>
<text xml:space="preserve" text-anchor="middle" x="201.75" y="-152.66" font-family="Times New Roman,serif" font-size="14.00">轮询标志</text>
</g>
<!-- g2_tasks -->
<g id="node5" class="node">
<title>g2_tasks</title>
<path fill="#a5d6a7" stroke="black" d="M785.25,-228C785.25,-228 659.75,-228 659.75,-228 653.75,-228 647.75,-222 647.75,-216 647.75,-216 647.75,-28 647.75,-28 647.75,-22 653.75,-16 659.75,-16 659.75,-16 785.25,-16 785.25,-16 791.25,-16 797.25,-22 797.25,-28 797.25,-28 797.25,-216 797.25,-216 797.25,-222 791.25,-228 785.25,-228"/>
<text xml:space="preserve" text-anchor="middle" x="722.5" y="-215.45" font-family="Microsoft YaHei" font-size="9.00">4→7个独立任务</text>
<text xml:space="preserve" text-anchor="middle" x="722.5" y="-202.7" font-family="Microsoft YaHei" font-size="9.00">━━━━━━━━━━━━━━</text>
<text xml:space="preserve" text-anchor="middle" x="722.5" y="-189.95" font-family="Microsoft YaHei" font-size="9.00">1. vTaskLimitSwitch (prio4)</text>
<text xml:space="preserve" text-anchor="middle" x="722.5" y="-177.2" font-family="Microsoft YaHei" font-size="9.00"> &#160;&#160;&#160;信号量触发,50ms去抖</text>
<text xml:space="preserve" text-anchor="middle" x="722.5" y="-164.45" font-family="Microsoft YaHei" font-size="9.00">2. vTaskAbnormalSit. (prio4)</text>
<text xml:space="preserve" text-anchor="middle" x="722.5" y="-151.7" font-family="Microsoft YaHei" font-size="9.00"> &#160;&#160;&#160;障碍物3次确认恢复</text>
<text xml:space="preserve" text-anchor="middle" x="722.5" y="-138.95" font-family="Microsoft YaHei" font-size="9.00">3. vTaskControl (prio3)</text>
<text xml:space="preserve" text-anchor="middle" x="722.5" y="-126.2" font-family="Microsoft YaHei" font-size="9.00"> &#160;&#160;&#160;信号量驱动 STOP/START</text>
<text xml:space="preserve" text-anchor="middle" x="722.5" y="-113.45" font-family="Microsoft YaHei" font-size="9.00">4. vTaskCollect (prio2)</text>
<text xml:space="preserve" text-anchor="middle" x="722.5" y="-100.7" font-family="Microsoft YaHei" font-size="9.00"> &#160;&#160;&#160;100ms 温度+距离+RS485</text>
<text xml:space="preserve" text-anchor="middle" x="722.5" y="-87.95" font-family="Microsoft YaHei" font-size="9.00">5. vTaskMotorReached (prio2)</text>
<text xml:space="preserve" text-anchor="middle" x="722.5" y="-75.2" font-family="Microsoft YaHei" font-size="9.00"> &#160;&#160;&#160;中点定位脉冲到达</text>
<text xml:space="preserve" text-anchor="middle" x="722.5" y="-62.45" font-family="Microsoft YaHei" font-size="9.00">6. vTaskCommunication (prio1)</text>
<text xml:space="preserve" text-anchor="middle" x="722.5" y="-49.7" font-family="Microsoft YaHei" font-size="9.00"> &#160;&#160;&#160;printf+OLED</text>
<text xml:space="preserve" text-anchor="middle" x="722.5" y="-36.95" font-family="Microsoft YaHei" font-size="9.00">7. vTaskLedMode (prio1)</text>
<text xml:space="preserve" text-anchor="middle" x="722.5" y="-24.2" font-family="Microsoft YaHei" font-size="9.00"> &#160;&#160;&#160;4模式LED独立控制</text>
</g>
<!-- g1_exec&#45;&gt;g2_tasks -->
<g id="edge10" class="edge">
<title>g1_exec&#45;&gt;g2_tasks</title>
<path fill="none" stroke="#1565c0" stroke-width="2" d="M534.97,-122C565.12,-122 602.79,-122 636.36,-122"/>
<polygon fill="#1565c0" stroke="#1565c0" stroke-width="2" points="634.55,-125.5 644.55,-122 634.55,-118.5 634.55,-125.5"/>
<text xml:space="preserve" text-anchor="middle" x="591.25" y="-155.25" font-family="Microsoft YaHei" font-size="10.00">引入 FreeRTOS</text>
<text xml:space="preserve" text-anchor="middle" x="591.25" y="-141" font-family="Microsoft YaHei" font-size="10.00">ISR非阻塞化</text>
<text xml:space="preserve" text-anchor="middle" x="591.25" y="-126.75" font-family="Microsoft YaHei" font-size="10.00">任务拆分</text>
</g>
<!-- g2_ipc -->
<g id="node6" class="node">
<title>g2_ipc</title>
<path fill="#81c784" stroke="black" d="M955,-170.62C955,-170.62 854.25,-170.62 854.25,-170.62 848.25,-170.62 842.25,-164.62 842.25,-158.62 842.25,-158.62 842.25,-85.38 842.25,-85.38 842.25,-79.38 848.25,-73.38 854.25,-73.38 854.25,-73.38 955,-73.38 955,-73.38 961,-73.38 967,-79.38 967,-85.38 967,-85.38 967,-158.62 967,-158.62 967,-164.62 961,-170.62 955,-170.62"/>
<text xml:space="preserve" text-anchor="middle" x="904.62" y="-158.07" font-family="Microsoft YaHei" font-size="9.00">IPC 机制</text>
<text xml:space="preserve" text-anchor="middle" x="904.62" y="-145.32" font-family="Microsoft YaHei" font-size="9.00">━━━━━━━━━━━━━━</text>
<text xml:space="preserve" text-anchor="middle" x="904.62" y="-132.57" font-family="Microsoft YaHei" font-size="9.00">4个二进制信号量</text>
<text xml:space="preserve" text-anchor="middle" x="904.62" y="-119.83" font-family="Microsoft YaHei" font-size="9.00">4个消息队列(20×uint32)</text>
<text xml:space="preserve" text-anchor="middle" x="904.62" y="-107.08" font-family="Microsoft YaHei" font-size="9.00">ISR非阻塞:</text>
<text xml:space="preserve" text-anchor="middle" x="904.62" y="-94.33" font-family="Microsoft YaHei" font-size="9.00">xSemaphoreGiveFromISR</text>
<text xml:space="preserve" text-anchor="middle" x="904.62" y="-81.58" font-family="Microsoft YaHei" font-size="9.00">全事件驱动,零轮询</text>
</g>
<!-- g2_tasks&#45;&gt;g2_ipc -->
<g id="edge4" class="edge">
<title>g2_tasks&#45;&gt;g2_ipc</title>
<path fill="none" stroke="black" stroke-width="2" d="M797.54,-122C808.49,-122 819.76,-122 830.69,-122"/>
<polygon fill="black" stroke="black" stroke-width="2" points="828.89,-125.5 838.89,-122 828.89,-118.5 828.89,-125.5"/>
</g>
<!-- g2_motor -->
<g id="node7" class="node">
<title>g2_motor</title>
<path fill="#66bb6a" stroke="black" d="M1157,-170.62C1157,-170.62 1024,-170.62 1024,-170.62 1018,-170.62 1012,-164.62 1012,-158.62 1012,-158.62 1012,-85.38 1012,-85.38 1012,-79.38 1018,-73.38 1024,-73.38 1024,-73.38 1157,-73.38 1157,-73.38 1163,-73.38 1169,-79.38 1169,-85.38 1169,-85.38 1169,-158.62 1169,-158.62 1169,-164.62 1163,-170.62 1157,-170.62"/>
<text xml:space="preserve" text-anchor="middle" x="1090.5" y="-158.07" font-family="Microsoft YaHei" font-size="9.00" fill="white">电机驱动演进</text>
<text xml:space="preserve" text-anchor="middle" x="1090.5" y="-145.32" font-family="Microsoft YaHei" font-size="9.00" fill="white">━━━━━━━━━━━━━━</text>
<text xml:space="preserve" text-anchor="middle" x="1090.5" y="-132.57" font-family="Microsoft YaHei" font-size="9.00" fill="white">v3: PWM1+ARR动态(任务3)</text>
<text xml:space="preserve" text-anchor="middle" x="1090.5" y="-119.83" font-family="Microsoft YaHei" font-size="9.00" fill="white">v4: motor_t结构体(任务4)</text>
<text xml:space="preserve" text-anchor="middle" x="1090.5" y="-107.08" font-family="Microsoft YaHei" font-size="9.00" fill="white">v5: 7任务全功能(任务5)</text>
<text xml:space="preserve" text-anchor="middle" x="1090.5" y="-94.33" font-family="Microsoft YaHei" font-size="9.00" fill="white">v6: ~40宏定义+OC Toggle(任务6)</text>
<text xml:space="preserve" text-anchor="middle" x="1090.5" y="-81.58" font-family="Microsoft YaHei" font-size="9.00" fill="white">斜坡: 5→1→10 Hz/步</text>
</g>
<!-- g2_ipc&#45;&gt;g2_motor -->
<g id="edge5" class="edge">
<title>g2_ipc&#45;&gt;g2_motor</title>
<path fill="none" stroke="black" stroke-width="2" d="M967.36,-122C977.9,-122 989.02,-122 1000.1,-122"/>
<polygon fill="black" stroke="black" stroke-width="2" points="998.57,-125.5 1008.57,-122 998.57,-118.5 998.57,-125.5"/>
</g>
<!-- g2_exec -->
<g id="node8" class="node">
<title>g2_exec</title>
<path fill="#c8e6c9" stroke="black" d="M1317,-171.7C1317,-171.7 1226,-171.7 1226,-171.7 1220,-171.7 1214,-165.7 1214,-159.7 1214,-159.7 1214,-84.3 1214,-84.3 1214,-78.3 1220,-72.3 1226,-72.3 1226,-72.3 1317,-72.3 1317,-72.3 1323,-72.3 1329,-78.3 1329,-84.3 1329,-84.3 1329,-159.7 1329,-159.7 1329,-165.7 1323,-171.7 1317,-171.7"/>
<text xml:space="preserve" text-anchor="middle" x="1271.5" y="-159.15" font-family="Microsoft YaHei" font-size="9.00">执行特征</text>
<text xml:space="preserve" text-anchor="middle" x="1271.5" y="-146.4" font-family="Microsoft YaHei" font-size="9.00">━━━━━━━━</text>
<text xml:space="preserve" text-anchor="middle" x="1271.5" y="-133.65" font-family="Microsoft YaHei" font-size="9.00">✓ 抢占式优先级调度</text>
<text xml:space="preserve" text-anchor="middle" x="1271.5" y="-120.36" font-family="Microsoft YaHei" font-size="9.00">✓ ISR非阻塞(信号量)</text>
<text xml:space="preserve" text-anchor="middle" x="1271.5" y="-107.61" font-family="Microsoft YaHei" font-size="9.00">✓ 阻塞时释放CPU</text>
<text xml:space="preserve" text-anchor="middle" x="1271.5" y="-94.33" font-family="Microsoft YaHei" font-size="9.00">✓ 安全优先(限位最高)</text>
<text xml:space="preserve" text-anchor="middle" x="1271.5" y="-81.04" font-family="Microsoft YaHei" font-size="9.00">✓ 扩展性强(加任务即可)</text>
</g>
<!-- g2_motor&#45;&gt;g2_exec -->
<g id="edge6" class="edge">
<title>g2_motor&#45;&gt;g2_exec</title>
<path fill="none" stroke="black" stroke-width="2" d="M1169.49,-122C1180.42,-122 1191.59,-122 1202.32,-122"/>
<polygon fill="black" stroke="black" stroke-width="2" points="1200.73,-125.5 1210.73,-122 1200.73,-118.5 1200.73,-125.5"/>
</g>
<!-- g3_state -->
<g id="node9" class="node">
<title>g3_state</title>
<path fill="#f8bbd0" stroke="black" d="M1626.75,-182C1626.75,-182 1472.75,-182 1472.75,-182 1466.75,-182 1460.75,-176 1460.75,-170 1460.75,-170 1460.75,-74 1460.75,-74 1460.75,-68 1466.75,-62 1472.75,-62 1472.75,-62 1626.75,-62 1626.75,-62 1632.75,-62 1638.75,-68 1638.75,-74 1638.75,-74 1638.75,-170 1638.75,-170 1638.75,-176 1632.75,-182 1626.75,-182"/>
<text xml:space="preserve" text-anchor="middle" x="1549.75" y="-169.45" font-family="Microsoft YaHei" font-size="9.00">电机状态机</text>
<text xml:space="preserve" text-anchor="middle" x="1549.75" y="-156.7" font-family="Microsoft YaHei" font-size="9.00">━━━━━━━━━━━━━━</text>
<text xml:space="preserve" text-anchor="middle" x="1549.75" y="-143.95" font-family="Microsoft YaHei" font-size="9.00">MOTOR_STOP → MOTOR_ACCEL</text>
<text xml:space="preserve" text-anchor="middle" x="1549.75" y="-131.2" font-family="Microsoft YaHei" font-size="9.00">→ MOTOR_RUN → MOTOR_DECEL</text>
<text xml:space="preserve" text-anchor="middle" x="1549.75" y="-118.45" font-family="Microsoft YaHei" font-size="9.00">→ MOTOR_STOP</text>
<text xml:space="preserve" text-anchor="middle" x="1549.75" y="-95.7" font-family="Microsoft YaHei" font-size="9.00">Bresenham离散加速公式</text>
<text xml:space="preserve" text-anchor="middle" x="1549.75" y="-82.95" font-family="Microsoft YaHei" font-size="9.00">next=PULSE&#45;((2*PULSE+rest)/(4*n+1))</text>
<text xml:space="preserve" text-anchor="middle" x="1549.75" y="-70.2" font-family="Microsoft YaHei" font-size="9.00">整数开方usqrt()</text>
</g>
<!-- g2_exec&#45;&gt;g3_state -->
<g id="edge11" class="edge">
<title>g2_exec&#45;&gt;g3_state</title>
<path fill="none" stroke="#880e4f" stroke-width="2" d="M1329.4,-122C1363.84,-122 1408.71,-122 1448.89,-122"/>
<polygon fill="#880e4f" stroke="#880e4f" stroke-width="2" points="1447.34,-125.5 1457.34,-122 1447.34,-118.5 1447.34,-125.5"/>
<text xml:space="preserve" text-anchor="middle" x="1394.88" y="-155.25" font-family="Microsoft YaHei" font-size="10.00">运动控制重写</text>
<text xml:space="preserve" text-anchor="middle" x="1394.88" y="-141" font-family="Microsoft YaHei" font-size="10.00">线性斜坡→梯形轮廓</text>
<text xml:space="preserve" text-anchor="middle" x="1394.88" y="-126.75" font-family="Microsoft YaHei" font-size="10.00">裸机验证模式</text>
</g>
<!-- g3_unit -->
<g id="node10" class="node">
<title>g3_unit</title>
<path fill="#f48fb1" stroke="black" d="M1778.5,-201.12C1778.5,-201.12 1695.75,-201.12 1695.75,-201.12 1689.75,-201.12 1683.75,-195.12 1683.75,-189.12 1683.75,-189.12 1683.75,-54.88 1683.75,-54.88 1683.75,-48.88 1689.75,-42.88 1695.75,-42.88 1695.75,-42.88 1778.5,-42.88 1778.5,-42.88 1784.5,-42.88 1790.5,-48.88 1790.5,-54.88 1790.5,-54.88 1790.5,-189.12 1790.5,-189.12 1790.5,-195.12 1784.5,-201.12 1778.5,-201.12"/>
<text xml:space="preserve" text-anchor="middle" x="1737.12" y="-188.57" font-family="Microsoft YaHei" font-size="9.00">单位制系统</text>
<text xml:space="preserve" text-anchor="middle" x="1737.12" y="-175.82" font-family="Microsoft YaHei" font-size="9.00">━━━━━━━━━━━━━━</text>
<text xml:space="preserve" text-anchor="middle" x="1737.12" y="-163.07" font-family="Microsoft YaHei" font-size="9.00">基本单位: 0.01圈</text>
<text xml:space="preserve" text-anchor="middle" x="1737.12" y="-150.32" font-family="Microsoft YaHei" font-size="9.00">PULSES_TO_UNIT(p)</text>
<text xml:space="preserve" text-anchor="middle" x="1737.12" y="-137.57" font-family="Microsoft YaHei" font-size="9.00">UNIT_TO_PULSES(u)</text>
<text xml:space="preserve" text-anchor="middle" x="1737.12" y="-124.83" font-family="Microsoft YaHei" font-size="9.00">HZ_TO_SPEED(h)</text>
<text xml:space="preserve" text-anchor="middle" x="1737.12" y="-112.08" font-family="Microsoft YaHei" font-size="9.00">SPEED_TO_HZ(s)</text>
<text xml:space="preserve" text-anchor="middle" x="1737.12" y="-89.33" font-family="Microsoft YaHei" font-size="9.00">运动参数:</text>
<text xml:space="preserve" text-anchor="middle" x="1737.12" y="-76.58" font-family="Microsoft YaHei" font-size="9.00">MotorSetAccel()</text>
<text xml:space="preserve" text-anchor="middle" x="1737.12" y="-63.83" font-family="Microsoft YaHei" font-size="9.00">MotorSetDecel()</text>
<text xml:space="preserve" text-anchor="middle" x="1737.12" y="-51.08" font-family="Microsoft YaHei" font-size="9.00">MotorSetTargetUnit()</text>
</g>
<!-- g3_state&#45;&gt;g3_unit -->
<g id="edge7" class="edge">
<title>g3_state&#45;&gt;g3_unit</title>
<path fill="none" stroke="black" stroke-width="2" d="M1639.09,-122C1650.19,-122 1661.37,-122 1671.99,-122"/>
<polygon fill="black" stroke="black" stroke-width="2" points="1670.24,-125.5 1680.24,-122 1670.24,-118.5 1670.24,-125.5"/>
</g>
<!-- g3_api -->
<g id="node11" class="node">
<title>g3_api</title>
<path fill="#ec407a" stroke="black" d="M1983.5,-183.38C1983.5,-183.38 1847.5,-183.38 1847.5,-183.38 1841.5,-183.38 1835.5,-177.38 1835.5,-171.38 1835.5,-171.38 1835.5,-72.62 1835.5,-72.62 1835.5,-66.62 1841.5,-60.62 1847.5,-60.62 1847.5,-60.62 1983.5,-60.62 1983.5,-60.62 1989.5,-60.62 1995.5,-66.62 1995.5,-72.62 1995.5,-72.62 1995.5,-171.38 1995.5,-171.38 1995.5,-177.38 1989.5,-183.38 1983.5,-183.38"/>
<text xml:space="preserve" text-anchor="middle" x="1915.5" y="-170.82" font-family="Microsoft YaHei" font-size="9.00" fill="white">PascalCase API</text>
<text xml:space="preserve" text-anchor="middle" x="1915.5" y="-158.07" font-family="Microsoft YaHei" font-size="9.00" fill="white">━━━━━━━━━━━━━━</text>
<text xml:space="preserve" text-anchor="middle" x="1915.5" y="-145.32" font-family="Microsoft YaHei" font-size="9.00" fill="white">MotorInit() MotorStart()</text>
<text xml:space="preserve" text-anchor="middle" x="1915.5" y="-132.57" font-family="Microsoft YaHei" font-size="9.00" fill="white">MotorStop() MotorSetSpeed()</text>
<text xml:space="preserve" text-anchor="middle" x="1915.5" y="-119.83" font-family="Microsoft YaHei" font-size="9.00" fill="white">MotorSetAccel() MotorSetDecel()</text>
<text xml:space="preserve" text-anchor="middle" x="1915.5" y="-107.08" font-family="Microsoft YaHei" font-size="9.00" fill="white">BspInit() DelayMs()</text>
<text xml:space="preserve" text-anchor="middle" x="1915.5" y="-94.33" font-family="Microsoft YaHei" font-size="9.00" fill="white">LedOn() LedOff()</text>
<text xml:space="preserve" text-anchor="middle" x="1915.5" y="-81.58" font-family="Microsoft YaHei" font-size="9.00" fill="white">OledShowString()</text>
<text xml:space="preserve" text-anchor="middle" x="1915.5" y="-68.83" font-family="Microsoft YaHei" font-size="9.00" fill="white">~50个宏定义参数化</text>
</g>
<!-- g3_unit&#45;&gt;g3_api -->
<g id="edge8" class="edge">
<title>g3_unit&#45;&gt;g3_api</title>
<path fill="none" stroke="black" stroke-width="2" d="M1790.57,-122C1801.08,-122 1812.4,-122 1823.78,-122"/>
<polygon fill="black" stroke="black" stroke-width="2" points="1822.13,-125.5 1832.13,-122 1822.13,-118.5 1822.13,-125.5"/>
</g>
<!-- g3_exec -->
<g id="node12" class="node">
<title>g3_exec</title>
<path fill="#fce4ec" stroke="black" d="M2141.25,-178.62C2141.25,-178.62 2052.5,-178.62 2052.5,-178.62 2046.5,-178.62 2040.5,-172.62 2040.5,-166.62 2040.5,-166.62 2040.5,-77.38 2040.5,-77.38 2040.5,-71.38 2046.5,-65.38 2052.5,-65.38 2052.5,-65.38 2141.25,-65.38 2141.25,-65.38 2147.25,-65.38 2153.25,-71.38 2153.25,-77.38 2153.25,-77.38 2153.25,-166.62 2153.25,-166.62 2153.25,-172.62 2147.25,-178.62 2141.25,-178.62"/>
<text xml:space="preserve" text-anchor="middle" x="2096.88" y="-166.07" font-family="Microsoft YaHei" font-size="9.00">执行特征</text>
<text xml:space="preserve" text-anchor="middle" x="2096.88" y="-153.32" font-family="Microsoft YaHei" font-size="9.00">━━━━━━━━</text>
<text xml:space="preserve" text-anchor="middle" x="2096.88" y="-140.57" font-family="Microsoft YaHei" font-size="9.00">✓ 完整梯形运动轮廓</text>
<text xml:space="preserve" text-anchor="middle" x="2096.88" y="-127.28" font-family="Microsoft YaHei" font-size="9.00">✓ 可配置加速度/减速度</text>
<text xml:space="preserve" text-anchor="middle" x="2096.88" y="-113.99" font-family="Microsoft YaHei" font-size="9.00">✓ 单位制距离控制</text>
<text xml:space="preserve" text-anchor="middle" x="2096.88" y="-100.7" font-family="Microsoft YaHei" font-size="9.00">✓ 三角/梯形自适应</text>
<text xml:space="preserve" text-anchor="middle" x="2096.88" y="-87.41" font-family="Microsoft YaHei" font-size="9.00">✓ 裸机电机验证模式</text>
<text xml:space="preserve" text-anchor="middle" x="2096.88" y="-74.12" font-family="Microsoft YaHei" font-size="9.00">✓ 架构可扩展至RTOS</text>
</g>
<!-- g3_api&#45;&gt;g3_exec -->
<g id="edge9" class="edge">
<title>g3_api&#45;&gt;g3_exec</title>
<path fill="none" stroke="black" stroke-width="2" d="M1995.96,-122C2006.9,-122 2018.05,-122 2028.74,-122"/>
<polygon fill="black" stroke="black" stroke-width="2" points="2027.1,-125.5 2037.1,-122 2027.1,-118.5 2027.1,-125.5"/>
</g>
</g>
</svg>
